<svg width="218" height="165" viewBox="0 0 218 165" fill="none" xmlns="http://www.w3.org/2000/svg">
<path fill-rule="evenodd" clip-rule="evenodd" d="M112.615 75.1676C112.615 71.596 112.321 72.6852 115.284 69.7005C122.032 62.9012 173.065 12.2853 174.344 10.4806L164.145 10.4749C162.229 10.5814 163.283 10.5243 160.679 12.9822C157.914 15.5923 155.234 18.314 152.583 21.0666C149.908 23.8434 147.251 26.4494 144.507 29.1545C141.745 31.8773 139.25 34.5425 136.411 37.2222C127.39 45.7349 117.171 56.9045 108.119 65.523C106.353 67.2049 104.574 68.5308 104.574 70.0773L104.6 124.879L139.61 124.87V79.9585C139.61 77.7562 139.858 78.0105 141.038 76.8869C141.826 76.1359 142.351 75.5512 143.131 74.7877L198.065 19.8304C199.55 18.3477 211.492 6.54155 212.959 5.06115C214.103 3.90649 216.334 1.98609 217.099 0.794755C214.138 0.882489 211.068 0.83903 208.1 0.812496C205.787 0.79143 206.02 0.78489 204.786 1.97249L134.601 71.9493C131.111 75.3928 131.534 74.4045 131.534 77.5634L131.548 116.796L112.63 116.796L112.615 75.1676Z" fill="#231F20"/>
<path fill-rule="evenodd" clip-rule="evenodd" d="M1.28125 20.0735C2.01445 21.1938 4.4262 23.3791 5.54647 24.4801C8.02927 26.9202 8.40523 28.1501 10.5566 28.1501L43.7946 28.1474C47.4339 28.1462 46.8141 27.9354 48.3765 29.5655C49.1339 30.3558 49.6789 30.8898 50.4696 31.6673L90.3027 71.4751C91.4858 72.649 91.191 72.6895 91.1607 74.8627C90.9695 88.698 91.5297 102.911 91.1414 116.798L67.5058 116.752C67.0908 111.314 67.4434 89.581 67.4434 82.3534C67.4434 79.5773 67.8956 75.5525 66.7885 74.3335C65.46 72.8702 63.8559 71.4566 62.4193 70.0174L25.753 33.3178C24.5987 32.2686 24.2302 32.5781 22.2376 32.5955C19.4464 32.6205 16.6567 32.6079 13.8648 32.6344C14.8362 34.0627 16.8008 35.7273 18.1241 37.0505L56.9015 75.839C59.5299 78.4889 59.3901 77.1383 59.3821 82.0537L59.3901 124.866L99.1967 124.875C98.9606 107.97 99.1843 90.8933 99.185 73.9689C99.1854 67.6314 100.096 69.9807 95.2181 65.0666C85.5573 55.3339 73.1486 42.5723 63.571 33.523C59.2078 29.4007 55.3814 25.0103 51.0663 20.8778C49.7742 19.6409 47.6307 20.0754 45.2917 20.0758L1.28125 20.0735Z" fill="#231F20"/>
<path d="M0.193359 138.586L9.71818 152.842V164.434H15.6082V152.842L25.133 138.586H18.052L12.6632 146.858L7.27433 138.586H0.193359ZM24.9137 151.495C24.9137 159.046 30.3026 164.904 37.9475 164.904C45.3727 164.904 50.9498 159.046 50.9498 151.495C50.9498 143.944 45.1222 138.117 37.9475 138.117C30.8351 138.117 24.9137 143.944 24.9137 151.495ZM31.2739 151.495C31.2739 147.641 33.4044 143.787 37.9475 143.787C42.5218 143.787 44.5896 147.641 44.5896 151.495C44.5896 155.349 42.647 159.202 37.9475 159.202C33.1226 159.202 31.2739 155.349 31.2739 151.495ZM62.1039 138.586V164.434H69.5919C76.7043 164.434 82.6257 159.046 82.6257 151.495C82.6257 143.975 76.6728 138.586 69.5919 138.586H62.1039ZM67.9939 159.171V143.85H68.9026C73.2891 143.85 76.2655 147.202 76.2655 151.526C76.2341 155.85 73.2578 159.171 68.9026 159.171H67.9939ZM91.1163 138.586H85.2263V164.434H91.1163V138.586ZM118.249 149.96H106.312V154.503H112.265C112.265 157.667 109.477 159.484 106.657 159.484C103.022 159.484 100.077 155.912 100.077 151.526C100.077 147.046 103.022 143.443 106.657 143.443C108.944 143.443 110.918 144.351 112.421 146.764L116.275 142.534C114.019 139.808 110.855 138.117 106.312 138.117C99.0431 138.117 93.7171 144.101 93.7171 151.526C93.7171 158.92 99.3565 164.904 106.312 164.904C111.388 164.904 116.839 162.116 118.249 155.568V149.96ZM126.74 138.586H120.85V164.434H126.74V138.586ZM127.743 143.756H133.884V164.434H139.774V143.756H145.915V138.586H127.743V143.756ZM160.045 138.586H154.594L144.16 164.434H150.489L152.4 159.265H162.238L164.149 164.434H170.478L160.045 138.586ZM160.233 154.095H154.405L157.288 146.576H157.351L160.233 154.095ZM177.371 138.586H171.481V164.434H186.269V159.265H177.371V138.586ZM198.708 138.117C194.54 138.117 190.279 141.187 190.279 146.012C190.279 148.706 192.097 151.119 195.198 152.654C198.269 154.189 201.026 155.035 201.026 156.915C201.026 159.328 198.582 159.453 197.298 159.453C194.415 159.453 190.969 156.539 190.969 156.539L188.024 161.49C188.024 161.49 191.69 164.904 197.736 164.904C202.781 164.904 207.48 162.743 207.48 156.57C207.48 153.187 204.316 150.743 201.434 149.521C198.488 148.268 196.044 147.234 196.044 145.792C196.044 144.383 197.11 143.474 199.115 143.474C201.778 143.474 204.347 145.26 204.347 145.26L206.728 140.56C206.728 140.56 203.407 138.117 198.708 138.117Z" fill="#231F20"/>
</svg>
