<svg width="94" height="21" viewBox="0 0 94 21" fill="none" xmlns="http://www.w3.org/2000/svg">
<path d="M10.598 16V11.996L11.116 13.368L6.804 6.2H9.212L12.516 11.702H11.13L14.448 6.2H16.674L12.362 13.368L12.866 11.996V16H10.598ZM21.9591 16.168C21.1844 16.168 20.4658 16.042 19.8031 15.79C19.1498 15.538 18.5804 15.1833 18.0951 14.726C17.6191 14.2687 17.2458 13.732 16.9751 13.116C16.7138 12.5 16.5831 11.828 16.5831 11.1C16.5831 10.372 16.7138 9.7 16.9751 9.084C17.2458 8.468 17.6238 7.93133 18.1091 7.474C18.5944 7.01667 19.1638 6.662 19.8171 6.41C20.4704 6.158 21.1798 6.032 21.9451 6.032C22.7198 6.032 23.4291 6.158 24.0731 6.41C24.7264 6.662 25.2911 7.01667 25.7671 7.474C26.2524 7.93133 26.6304 8.468 26.9011 9.084C27.1718 9.69067 27.3071 10.3627 27.3071 11.1C27.3071 11.828 27.1718 12.5047 26.9011 13.13C26.6304 13.746 26.2524 14.2827 25.7671 14.74C25.2911 15.188 24.7264 15.538 24.0731 15.79C23.4291 16.042 22.7244 16.168 21.9591 16.168ZM21.9451 14.236C22.3838 14.236 22.7851 14.1613 23.1491 14.012C23.5224 13.8627 23.8491 13.648 24.1291 13.368C24.4091 13.088 24.6238 12.7567 24.7731 12.374C24.9318 11.9913 25.0111 11.5667 25.0111 11.1C25.0111 10.6333 24.9318 10.2087 24.7731 9.826C24.6238 9.44333 24.4091 9.112 24.1291 8.832C23.8584 8.552 23.5364 8.33733 23.1631 8.188C22.7898 8.03867 22.3838 7.964 21.9451 7.964C21.5064 7.964 21.1004 8.03867 20.7271 8.188C20.3631 8.33733 20.0411 8.552 19.7611 8.832C19.4811 9.112 19.2618 9.44333 19.1031 9.826C18.9538 10.2087 18.8791 10.6333 18.8791 11.1C18.8791 11.5573 18.9538 11.982 19.1031 12.374C19.2618 12.7567 19.4764 13.088 19.7471 13.368C20.0271 13.648 20.3538 13.8627 20.7271 14.012C21.1004 14.1613 21.5064 14.236 21.9451 14.236ZM29.0116 16V6.2H33.4636C34.5276 6.2 35.4656 6.40533 36.2776 6.816C37.0896 7.21733 37.7243 7.782 38.1816 8.51C38.6389 9.238 38.8676 10.1013 38.8676 11.1C38.8676 12.0893 38.6389 12.9527 38.1816 13.69C37.7243 14.418 37.0896 14.9873 36.2776 15.398C35.4656 15.7993 34.5276 16 33.4636 16H29.0116ZM31.2796 14.138H33.3516C34.0049 14.138 34.5696 14.0167 35.0456 13.774C35.5309 13.522 35.9043 13.1673 36.1656 12.71C36.4363 12.2527 36.5716 11.716 36.5716 11.1C36.5716 10.4747 36.4363 9.938 36.1656 9.49C35.9043 9.03267 35.5309 8.68267 35.0456 8.44C34.5696 8.188 34.0049 8.062 33.3516 8.062H31.2796V14.138ZM40.578 16V6.2H42.846V16H40.578ZM49.9038 16.168C49.1291 16.168 48.4151 16.0467 47.7618 15.804C47.1178 15.552 46.5531 15.1973 46.0678 14.74C45.5918 14.2827 45.2184 13.746 44.9478 13.13C44.6864 12.514 44.5558 11.8373 44.5558 11.1C44.5558 10.3627 44.6864 9.686 44.9478 9.07C45.2184 8.454 45.5964 7.91733 46.0818 7.46C46.5671 7.00267 47.1364 6.65267 47.7898 6.41C48.4431 6.158 49.1618 6.032 49.9458 6.032C50.8138 6.032 51.5931 6.17667 52.2838 6.466C52.9838 6.75533 53.5718 7.17533 54.0478 7.726L52.5918 9.07C52.2371 8.69667 51.8498 8.42133 51.4298 8.244C51.0098 8.05733 50.5524 7.964 50.0578 7.964C49.5818 7.964 49.1478 8.03867 48.7558 8.188C48.3638 8.33733 48.0231 8.552 47.7338 8.832C47.4538 9.112 47.2344 9.44333 47.0758 9.826C46.9264 10.2087 46.8518 10.6333 46.8518 11.1C46.8518 11.5573 46.9264 11.9773 47.0758 12.36C47.2344 12.7427 47.4538 13.0787 47.7338 13.368C48.0231 13.648 48.3591 13.8627 48.7418 14.012C49.1338 14.1613 49.5631 14.236 50.0298 14.236C50.4778 14.236 50.9118 14.166 51.3318 14.026C51.7611 13.8767 52.1764 13.6293 52.5778 13.284L53.8658 14.922C53.3338 15.3233 52.7131 15.6313 52.0038 15.846C51.3038 16.0607 50.6038 16.168 49.9038 16.168ZM51.7938 14.628V10.946H53.8658V14.922L51.7938 14.628ZM55.9725 16V6.2H58.2405V16H55.9725ZM62.5963 16V8.048H59.4603V6.2H68.0003V8.048H64.8643V16H62.5963ZM67.4404 16L71.8084 6.2H74.0484L78.4304 16H76.0504L72.4664 7.348H73.3624L69.7644 16H67.4404ZM69.6244 13.9L70.2264 12.178H75.2664L75.8824 13.9H69.6244ZM79.4472 16V6.2H81.7152V14.152H86.6292V16H79.4472Z" fill="white"/>
</svg>
